<?xml version="1.0" encoding="UTF-8"?>
<!DOCTYPE svg PUBLIC "-//W3C//DTD SVG 1.1//EN" "http://www.w3.org/Graphics/SVG/1.1/DTD/svg11.dtd">
<!-- Creator: CorelDRAW -->
<svg xmlns="http://www.w3.org/2000/svg" xml:space="preserve" width="1.3562in" height="1.35621in" version="1.1" style="shape-rendering:geometricPrecision; text-rendering:geometricPrecision; image-rendering:optimizeQuality; fill-rule:evenodd; clip-rule:evenodd"
viewBox="0 0 14.93 14.93"
 xmlns:xlink="http://www.w3.org/1999/xlink"
 xmlns:xodm="http://www.corel.com/coreldraw/odm/2003">
 <defs>
  <style type="text/css">
   <![CDATA[
    .fil0 {fill:none}
   ]]>
  </style>
   <clipPath id="id0">
    <path d="M1.01 0l12.9 0c0.56,0 1.01,0.46 1.01,1.01l0 12.9c0,0.56 -0.46,1.01 -1.01,1.01l-12.9 0c-0.56,0 -1.01,-0.46 -1.01,-1.01l0 -12.9c0,-0.56 0.46,-1.01 1.01,-1.01z"/>
   </clipPath>
    <clipPath id="id1">
     <path d="M1.01 0l12.9 0c0.56,0 1.01,0.46 1.01,1.01l0 12.9c0,0.56 -0.46,1.01 -1.01,1.01l-12.9 0c-0.56,0 -1.01,-0.46 -1.01,-1.01l0 -12.9c0,-0.56 0.46,-1.01 1.01,-1.01z"/>
    </clipPath>
    <clipPath id="id2">
     <path d="M1.01 0l12.9 0c0.56,0 1.01,0.46 1.01,1.01l0 12.9c0,0.56 -0.46,1.01 -1.01,1.01l-12.9 0c-0.56,0 -1.01,-0.46 -1.01,-1.01l0 -12.9c0,-0.56 0.46,-1.01 1.01,-1.01z"/>
    </clipPath>
 </defs>
 <g id="Layer_x0020_1">
  <metadata id="CorelCorpID_0Corel-Layer"/>
  <g>
  </g>
  <g style="clip-path:url(#id0)">
   <g id="_2274280478160">
   </g>
   <g style="clip-path:url(#id1)">
    <image x="-0.59" y="-0.59" width="16.11" height="16.11" xlink:href="binance logo_Images\binance logo_ImgID1.png"/>
   </g>
   <g style="clip-path:url(#id2)">
   </g>
  </g>
  <path class="fil0" d="M1.01 0l12.9 0c0.56,0 1.01,0.46 1.01,1.01l0 12.9c0,0.56 -0.46,1.01 -1.01,1.01l-12.9 0c-0.56,0 -1.01,-0.46 -1.01,-1.01l0 -12.9c0,-0.56 0.46,-1.01 1.01,-1.01z"/>
 </g>
</svg>
