<?xml version="1.0" encoding="UTF-8"?>
<!DOCTYPE svg PUBLIC "-//W3C//DTD SVG 1.1//EN" "http://www.w3.org/Graphics/SVG/1.1/DTD/svg11.dtd">
<!-- Creator: CorelDRAW -->
<svg xmlns="http://www.w3.org/2000/svg" xml:space="preserve" width="0.663843in" height="0.663843in" version="1.1" style="shape-rendering:geometricPrecision; text-rendering:geometricPrecision; image-rendering:optimizeQuality; fill-rule:evenodd; clip-rule:evenodd"
viewBox="0 0 2.59 2.59"
 xmlns:xlink="http://www.w3.org/1999/xlink"
 xmlns:xodm="http://www.corel.com/coreldraw/odm/2003">
 <defs>
  <style type="text/css">
   <![CDATA[
    .fil0 {fill:black}
   ]]>
  </style>
    <clipPath id="id0">
     <rect x="-0" y="-0" width="2.59" height="2.59"/>
    </clipPath>
 </defs>
 <g id="Layer_x0020_1">
  <metadata id="CorelCorpID_0Corel-Layer"/>
  <g id="_2273869246000">
   <g style="clip-path:url(#id0)">
    <image id="rocket-launch.png" transform="matrix(0.0664783 0.0579761 -0.0579761 0.0664783 1.20422 -2.12498E-05)" x="0" y="0" width="20.77" height="20.77" xlink:href="golden rocket pricing table get icon_Images\golden rocket pricing table get icon_ImgID1.png"/>
   </g>
   <path class="fil0" d="M1.09 0.78c-0.01,-0 -0.08,-0.02 -0.12,0.05 -0.03,0.07 0.03,0.11 0.03,0.12 0.01,0.03 -0.03,0.05 -0.05,0.03 -0.03,-0.02 0,-0.04 -0.02,-0.06 -0.04,-0.04 -0.08,0.03 -0.05,0.08 -0.02,0.02 -0.04,0.04 -0.01,0.06 0.02,0.02 0.04,-0 0.06,-0.02 0.04,0.01 0.09,0.01 0.11,-0.05 0.03,-0.07 -0.02,-0.1 -0.03,-0.12 -0.01,-0.02 0.02,-0.05 0.03,-0.04 0.04,0.01 0.02,0.04 0.03,0.06 0.02,0.02 0.06,0.02 0.05,-0.04 -0,-0.01 -0,-0.02 -0.01,-0.03 0.02,-0.02 0.03,-0.04 0.02,-0.06 -0.02,-0.02 -0.04,-0 -0.06,0.02z"/>
   <path class="fil0" d="M1.8 1.35c-0.01,-0 -0.08,-0.02 -0.12,0.05 -0.03,0.07 0.03,0.11 0.03,0.12 0.01,0.03 -0.03,0.05 -0.05,0.03 -0.03,-0.02 0,-0.04 -0.02,-0.06 -0.04,-0.04 -0.08,0.03 -0.05,0.08 -0.02,0.02 -0.04,0.04 -0.01,0.06 0.02,0.02 0.04,-0 0.06,-0.02 0.04,0.01 0.09,0.01 0.11,-0.05 0.03,-0.07 -0.02,-0.1 -0.03,-0.12 -0.01,-0.02 0.02,-0.05 0.03,-0.04 0.04,0.01 0.02,0.04 0.03,0.06 0.02,0.02 0.06,0.02 0.05,-0.04 -0,-0.01 -0,-0.02 -0.01,-0.03 0.02,-0.02 0.03,-0.04 0.02,-0.06 -0.02,-0.02 -0.04,-0 -0.06,0.02z"/>
  </g>
 </g>
</svg>
