<?xml version="1.0" encoding="UTF-8"?>
<!DOCTYPE svg PUBLIC "-//W3C//DTD SVG 1.1//EN" "http://www.w3.org/Graphics/SVG/1.1/DTD/svg11.dtd">
<!-- Creator: CorelDRAW -->
<svg xmlns="http://www.w3.org/2000/svg" xml:space="preserve" width="3.31161in" height="3.26517in" version="1.1" style="shape-rendering:geometricPrecision; text-rendering:geometricPrecision; image-rendering:optimizeQuality; fill-rule:evenodd; clip-rule:evenodd"
viewBox="0 0 106.59 105.1"
 xmlns:xlink="http://www.w3.org/1999/xlink"
 xmlns:xodm="http://www.corel.com/coreldraw/odm/2003">
 <defs>
  <style type="text/css">
   <![CDATA[
    .fil4 {fill:#FFCC29;fill-rule:nonzero}
    .fil15 {fill:#F48E92;fill-rule:nonzero}
    .fil16 {fill:#F7F7F6;fill-rule:nonzero}
    .fil0 {fill:#EFEFEF;fill-rule:nonzero}
    .fil1 {fill:#D9DAD9;fill-rule:nonzero}
    .fil10 {fill:#AC6D6E;fill-rule:nonzero}
    .fil11 {fill:#965556;fill-rule:nonzero}
    .fil13 {fill:#895859;fill-rule:nonzero}
    .fil7 {fill:#42616A;fill-rule:nonzero}
    .fil5 {fill:#384E55;fill-rule:nonzero}
    .fil8 {fill:#33454B;fill-rule:nonzero}
    .fil2 {fill:#00B3A9;fill-rule:nonzero}
    .fil6 {fill:#2C3C43;fill-rule:nonzero}
    .fil3 {fill:#00B09F;fill-rule:nonzero}
    .fil9 {fill:#00AC97;fill-rule:nonzero}
    .fil12 {fill:#008776;fill-rule:nonzero}
    .fil14 {fill:#006D5F;fill-rule:nonzero}
   ]]>
  </style>
 </defs>
 <g id="Layer_x0020_1">
  <metadata id="CorelCorpID_0Corel-Layer"/>
  <g id="_2273218050976">
   <path class="fil0" d="M15.61 96.09c-20.81,-12.02 -20.81,-31.5 0,-43.52 20.81,-12.02 54.56,-12.02 75.37,0 20.81,12.02 20.81,31.5 0,43.52 -20.81,12.02 -54.56,12.02 -75.37,0z"/>
   <path class="fil1" d="M43.83 80.55c6.39,3.69 6.39,9.66 -0,13.35 -6.39,3.69 -16.74,3.69 -23.13,0 -6.39,-3.69 -6.39,-9.66 0,-13.35 6.39,-3.69 16.74,-3.69 23.13,0z"/>
   <path class="fil1" d="M75.17 57.54c10.17,-0.33 13.66,6.14 7.79,14.45 -5.87,8.31 -18.87,15.33 -29.04,15.66 -10.17,0.33 -13.66,-6.13 -7.79,-14.45 5.87,-8.31 18.87,-15.33 29.04,-15.66z"/>
   <path class="fil2" d="M81.35 69.41c2.27,-2.7 5.82,-4.46 9.81,-5.5 3.94,-1.03 4.65,-3.45 2.04,-4.24 -2.96,-0.89 -6.66,0.75 -9.04,3.03 -4.15,3.98 -4.68,7.02 -4.68,7.02l1.87 -0.3z"/>
   <path class="fil3" d="M81.06 69.46c1.82,-2.53 3.43,-5.27 4.8,-8.13 1.7,-1.14 3.71,-1.91 5.59,-1.91 0.6,0 1.19,0.08 1.75,0.25 1.03,0.31 1.55,0.88 1.55,1.52 0,0.97 -1.2,2.1 -3.58,2.72 -3.99,1.04 -7.55,2.8 -9.81,5.5l-0.29 0.05z"/>
   <path class="fil4" d="M80.18 69.25l-0.05 -0.01c-0.06,-0.03 -0.08,-0.1 -0.05,-0.15 3.37,-6.91 10.81,-8.6 12.62,-8.48 0.06,0 0.11,0.06 0.11,0.12 -0,0.06 -0.06,0.11 -0.12,0.11 -1.77,-0.14 -9.09,1.55 -12.4,8.35 -0.02,0.04 -0.06,0.06 -0.1,0.06z"/>
   <path class="fil2" d="M79.48 70.13c0,0.49 0.53,0.78 0.95,0.54 2.11,-1.23 5.18,-1.91 10.16,-0.49 2.65,0.75 3.95,0.25 4.51,-0.83 0.62,-1.2 -0.69,-2.35 -2.19,-2.9 -5.09,-1.86 -9.69,-0.59 -13.43,3.12l0 0.56z"/>
   <path class="fil4" d="M79.77 70.23c-0.03,0 -0.06,-0.01 -0.09,-0.04 -0.04,-0.05 -0.04,-0.12 0.01,-0.16 4.4,-3.93 11.21,-3.17 13.79,-1.63 0.05,0.03 0.07,0.1 0.04,0.16 -0.03,0.05 -0.1,0.07 -0.16,0.04 -2.53,-1.5 -9.21,-2.25 -13.52,1.61 -0.02,0.02 -0.05,0.03 -0.08,0.03z"/>
   <path class="fil2" d="M30.26 79.29c-1.93,-2.95 -5.25,-5.12 -9.1,-6.62 -3.79,-1.48 -4.21,-3.98 -1.52,-4.45 3.05,-0.54 6.53,1.53 8.62,4.07 3.66,4.44 3.81,7.52 3.81,7.52l-1.82 -0.52z"/>
   <path class="fil3" d="M30.67 79.41l-0.41 -0.12c-1.93,-2.95 -5.25,-5.12 -9.1,-6.62 -2.18,-0.85 -3.25,-2.04 -3.25,-2.99 0,-0.7 0.58,-1.26 1.72,-1.46 0.33,-0.06 0.66,-0.09 1,-0.09 2.78,0 5.75,1.89 7.62,4.16 0.63,0.76 1.15,1.48 1.59,2.15 0.27,0.66 0.43,1.07 0.43,1.07 0.05,0.01 0.1,0.02 0.15,0.03 0.13,0.32 0.37,0.89 0.53,1.29 -0.01,0.01 -0.02,0.01 -0.03,0.02 -0.09,0.07 -0.16,0.18 -0.19,0.3l-0.01 0.02c-0.05,0.21 -0.01,0.43 0.02,0.65 0.07,0.53 0.04,1.07 -0.09,1.59z"/>
   <path class="fil4" d="M31.44 79.27l0.05 -0.01c0.06,-0.02 0.09,-0.09 0.07,-0.15 -2.53,-7.25 -9.72,-9.82 -11.54,-9.91 -0.06,-0 -0.12,0.05 -0.12,0.11 -0,0.06 0.05,0.12 0.11,0.12 1.77,0.07 8.84,2.61 11.33,9.75 0.01,0.04 0.05,0.07 0.1,0.08z"/>
   <path class="fil2" d="M32.1 79.67c-0.08,0.71 -0.89,1.08 -1.49,0.68 -1.95,-1.31 -4.86,-2.16 -9.62,-1.39 -2.72,0.44 -3.95,-0.22 -4.38,-1.35 -0.47,-1.26 0.97,-2.26 2.51,-2.62 5.28,-1.25 9.69,0.56 12.97,4.69z"/>
   <path class="fil4" d="M31.73 80.29c0.03,0 0.06,-0.01 0.09,-0.03 0.05,-0.04 0.05,-0.11 0.01,-0.16 -3.9,-4.42 -10.76,-4.47 -13.5,-3.25 -0.06,0.03 -0.08,0.09 -0.06,0.15 0.03,0.06 0.09,0.08 0.15,0.06 2.69,-1.19 9.41,-1.15 13.24,3.19 0.02,0.02 0.05,0.03 0.07,0.04z"/>
   <path class="fil5" d="M83.41 26.7l0 -0 -0.04 -0.02 -0 -0 -8.77 -5.05 -0.01 -0 -0.05 -0.03 -0 0c-4.1,-2.07 -9.57,-1.45 -15.45,2.36 -11.82,7.64 -20.82,25.23 -20.12,39.29 0.35,7.01 3.06,11.81 7.14,13.92l-0 0 0.04 0.02 0 0 8.78 5.05 0 0 0.04 0.02 0 -0c4.1,2.07 9.57,1.46 15.46,-2.35 11.82,-7.64 20.83,-25.23 20.12,-39.29 -0.35,-7.01 -3.06,-11.81 -7.14,-13.92z"/>
   <path class="fil6" d="M54.63 82.08l-8.48 -4.89 -0.01 0 -0.04 -0.02c-4.08,-2.12 -6.78,-6.92 -7.13,-13.92 -0.32,-6.27 1.3,-13.24 4.23,-19.71l0.06 -0.14 8.72 5.19c-2.94,6.47 -4.55,13.44 -4.23,19.71 0.35,6.86 2.94,11.6 6.88,13.78z"/>
   <path class="fil7" d="M70.43 79.91c11.82,-7.64 20.82,-25.23 20.12,-39.29 -0.71,-14.06 -10.87,-19.26 -22.68,-11.61 -11.82,7.64 -20.83,25.23 -20.12,39.29 0.71,14.06 10.87,19.26 22.68,11.61z"/>
   <path class="fil5" d="M80.44 25.61l-14.81 30.51 -3.19 -3.46c-0.98,-1.07 -2.39,-1.68 -3.85,-1.68 -1.32,0 -2.59,0.49 -3.56,1.39 -2.12,1.96 -2.25,5.28 -0.29,7.4l8.4 9.1c0.93,1.01 2.2,1.6 3.57,1.68 0.1,0.01 0.19,0.01 0.29,0.01 0.25,0 0.5,-0.02 0.76,-0.05 1.72,-0.26 3.19,-1.34 3.95,-2.9l16.99 -34.99c-1.73,-3.88 -4.64,-6.29 -8.25,-7.01z"/>
   <path class="fil2" d="M92.47 15.56c-0.09,-0.05 -0.19,-0.1 -0.28,-0.15 -2.26,-1.09 -4.99,-0.15 -6.08,2.1l-18.85 38.82 -1.07 -1.16c-0.32,-0.35 -0.68,-0.63 -1.07,-0.85 -0.56,-0.32 -2.95,-1.71 -3.34,-1.93 -1.67,-0.97 -3.86,-0.78 -5.37,0.6 -1.84,1.7 -1.96,4.58 -0.26,6.43l8.4 9.1c0.32,0.35 0.69,0.64 1.08,0.86 0.55,0.31 2.93,1.69 3.32,1.92 0.61,0.36 1.31,0.57 2.04,0.6 0.3,0.02 0.6,0 0.91,-0.04 1.49,-0.22 2.77,-1.16 3.43,-2.51l22.3 -45.93c1.05,-2.16 0.23,-4.75 -1.82,-5.93 -0.09,-0.05 -2.75,-1.59 -3.35,-1.93z"/>
   <path class="fil3" d="M71.25 71.91c-0.08,0 -0.17,-0 -0.25,-0.01 -0.73,-0.04 -1.42,-0.25 -2.04,-0.6 -0.39,-0.23 -2.77,-1.61 -3.32,-1.92 -0.27,-0.16 -0.53,-0.34 -0.77,-0.55 0.24,0.21 0.5,0.4 0.77,0.55 0.55,0.31 2.93,1.69 3.32,1.92l0 0c-0.39,-0.23 -0.75,-0.51 -1.06,-0.85l-8.4 -9.1c-0.38,-0.42 -0.68,-0.89 -0.87,-1.38l-3.34 -1.93c0.16,0.4 0.38,0.79 0.66,1.14 -0.67,-0.83 -1,-1.84 -1,-2.84 -0,-1.23 0.49,-2.45 1.46,-3.34 0.88,-0.81 1.99,-1.2 3.09,-1.2 0.79,0 1.58,0.2 2.27,0.61 0.39,0.22 2.78,1.61 3.34,1.93 0.39,0.22 0.75,0.51 1.07,0.85l1.07 1.16 18.85 -38.82c0.78,-1.62 2.41,-2.56 4.1,-2.56 0.67,0 1.34,0.15 1.98,0.46 0.1,0.05 0.19,0.1 0.28,0.15 0.6,0.34 3.25,1.88 3.35,1.93 1.44,0.83 2.27,2.36 2.27,3.95 0,0.67 -0.15,1.34 -0.46,1.98l-22.3 45.93c-0.65,1.35 -1.94,2.29 -3.43,2.51 -0.22,0.03 -0.44,0.05 -0.66,0.05zm15.91 -55.8c-0.43,0.38 -0.79,0.85 -1.06,1.4l-18.85 38.82 2.8 3.04 19.39 -39.93c0.27,-0.55 0.63,-1.02 1.05,-1.4l-3.34 -1.93z"/>
   <path class="fil8" d="M64.87 68.83c-0.11,-0.1 -0.21,-0.2 -0.31,-0.31l-8.4 -9.1c-0.07,-0.08 -0.14,-0.16 -0.21,-0.24 0.07,0.08 0.13,0.16 0.21,0.24l8.4 9.1c0.1,0.11 0.2,0.21 0.31,0.31z"/>
   <path class="fil9" d="M68.96 71.3c-0.39,-0.23 -2.77,-1.61 -3.32,-1.92 -0.27,-0.16 -0.53,-0.34 -0.77,-0.55 -0.11,-0.1 -0.21,-0.2 -0.31,-0.31l-8.4 -9.1c-0.07,-0.08 -0.14,-0.16 -0.21,-0.24 -0.28,-0.35 -0.5,-0.74 -0.66,-1.14l3.34 1.93c0.2,0.5 0.49,0.97 0.87,1.38l8.4 9.1c0.31,0.34 0.67,0.62 1.06,0.85z"/>
   <path class="fil9" d="M70.06 59.37l-2.8 -3.04 18.85 -38.82c0.26,-0.55 0.63,-1.02 1.06,-1.4l3.34 1.93c-0.43,0.38 -0.79,0.85 -1.05,1.4l-19.39 39.93z"/>
   <path class="fil4" d="M95.53 17.34c-2.26,-1.09 -4.99,-0.15 -6.08,2.1l-19.39 39.93 -3.88 -4.2c-1.69,-1.84 -4.58,-1.96 -6.43,-0.25 -1.84,1.7 -1.95,4.58 -0.26,6.43l8.4 9.1c0.81,0.87 1.91,1.39 3.1,1.46 0.3,0.02 0.6,0 0.91,-0.04 1.49,-0.22 2.77,-1.16 3.43,-2.51l22.3 -45.93c1.09,-2.26 0.15,-4.99 -2.1,-6.08z"/>
   <path class="fil10" d="M31.94 21.82c-1.76,0 -2.96,0.46 -4.21,2.23 -1.14,1.63 -4.29,7.06 -4.29,7.06 0,0 -2.29,-4.72 -2.53,-5.66 -0.24,-0.94 -0.22,-1.36 0.01,-1.77 0.28,-0.5 0.53,-0.95 0.58,-1.62 0.09,-1.13 0.37,-2.1 0.11,-2.13 -0.7,-0.04 -0.73,0.86 -1.1,1.39 -0.13,0.19 -0.56,0.22 -0.71,-0.08 -0.16,-0.32 -0.07,-0.83 -0.15,-1.21 0.03,-0.32 0.06,-0.43 0.1,-0.62 0.2,0.05 0.49,0.05 0.81,0.02 0.3,0.48 0.51,0.68 0.94,0.48 0.06,-0.09 -0.18,-0.7 -0.46,-1.14 -0.04,-0.07 -0.11,-0.12 -0.19,-0.14 -0.43,-0.12 -0.91,-0.15 -1.56,-0.04 -0.08,0.01 -0.16,0.05 -0.2,0.11 -0.24,0.36 -0.39,0.73 -0.45,0.91 -0.03,0.1 -0.12,0.1 -0.14,0.01 -0.22,-1.11 -0.23,-2.69 -0.23,-3.43 0,-0.58 -0.85,-0.67 -0.88,0.16 -0.03,0.85 -0.05,2.43 0.06,3.35 0.01,0.1 -0.1,0.15 -0.14,0.04 -0.15,-0.39 -0.51,-1.58 -0.66,-3.64 -0.04,-0.55 -0.93,-0.64 -0.93,0.13 0.02,2.13 0.51,4.09 0.51,4.09 0.03,0.1 -0.06,0.18 -0.13,0.07 -0.3,-0.49 -0.76,-1.69 -1,-2.52 -0.19,-0.67 -1.08,-0.5 -0.92,0.33 0.28,1.49 0.72,3.37 1.38,4.72 0.7,1.44 1.31,2.16 1.66,3.29 0.35,1.13 1.8,7.53 3.35,10.03 1.21,1.95 2.6,1.78 4.09,0.74 1.49,-1.03 6.83,-8.47 6.83,-8.47l0.45 -6.72z"/>
   <path class="fil11" d="M23.44 31.12c0,0 0.75,1.27 0.86,2.28 0,0 0.36,-1.45 -0.53,-2.86l-0.33 0.58z"/>
   <path class="fil7" d="M32.31 21.83c-0.89,-0.09 -2,-0.12 -3.24,0.66 -1.24,0.78 -1.67,1.87 -2.27,2.82 -0.6,0.95 -2.68,4.32 -2.68,4.32 0,0 0.76,3.2 3.79,3.86l4.54 -6.16 -0.14 -5.49z"/>
   <path class="fil6" d="M36.38 78.04c0.22,-0.03 0.54,0.76 0.54,1.01 0,0.26 -0.25,0.81 -0.59,1.32 -0.34,0.52 -0.81,1.15 -1.12,1.99 -0.26,0.71 -0.5,1.17 -1.22,2.1 -0.81,1.03 -2.7,2.76 -5.57,2.01 -0.7,-0.18 -1.05,-0.4 -1.31,-0.66 -0.21,-0.22 -0.32,-0.56 -0.2,-0.88l9.47 -6.89z"/>
   <path class="fil5" d="M30.74 77.15l-0.01 0.02c-0.05,0.21 -0.01,0.43 0.02,0.65 0.09,0.76 -0.01,1.53 -0.29,2.24 -0.19,0.48 -0.46,0.92 -0.8,1.3 -0.34,0.39 -0.9,0.81 -1.34,1.09 -1.46,0.93 -1.61,1.55 -1.41,2.49 0.49,1.09 3.79,1.76 5.68,0.13 0.74,-0.64 1.3,-1.2 1.81,-2.46 0.35,-0.89 0.62,-1.39 0.96,-2.03 0.37,-0.69 1.06,-1.47 1.08,-2.18 0.01,-0.39 -0.38,-1.12 -0.75,-1.72 -0.34,-0.55 -0.7,-1.07 -1.01,-1.01l0.09 0.31c-0.26,0.27 -0.63,0.37 -0.86,0.68 -0.28,0.39 -0.27,0.91 -0.44,1.36 -0.02,0.04 -0.04,0.09 -0.08,0.1 -0.05,0.01 -0.1,-0.02 -0.12,-0.06 -0.02,-0.04 -0.03,-0.09 -0.03,-0.14 -0.01,-0.22 -0.01,-0.45 -0.02,-0.67 -0,-0.13 -0.01,-0.27 -0.1,-0.36 -0.18,-0.2 -0.62,-0.18 -0.87,-0.19 -0.34,-0.01 -0.66,0.04 -0.99,0.06 -0.12,0.01 -0.22,0 -0.32,0.09 -0.09,0.07 -0.16,0.18 -0.19,0.3z"/>
   <path class="fil10" d="M33.33 50.21l0 0 0 -0zm-7.47 13.55c0.77,2.52 4.35,11.25 4.57,11.77 0.22,0.53 0.71,1.73 0.71,1.73 0,0 0.59,0.24 1.46,0.06 0.08,0.84 0.2,2.15 0.25,2.81 0.02,0.77 0.08,1.71 -0.08,2.47 -0.14,0.65 -0.3,1.32 -0.42,1.97 -0.05,0.29 -0.11,0.57 -0.15,0.86 -0.05,0.3 -0.08,0.63 0.07,0.9 0.07,0.13 0.17,0.23 0.28,0.32 0.5,0.41 1.16,0.58 1.81,0.53 0.34,-0.03 0.68,-0.12 0.96,-0.32 0.56,-0.4 0.75,-1.09 1.04,-1.68 0.31,-0.64 0.21,-0.71 0.23,-1.39 0.02,-0.48 0.15,-1.69 0.34,-2.96 0.19,-1.27 1.02,-5.74 1.41,-10.19 0.27,-3.08 0,-5.94 0,-5.94 3.14,-8.54 4.54,-13.62 4.96,-16.46 0.42,-2.88 0.22,-3.91 0.16,-5.57l-15.29 0.37c-1.23,7.9 -3.33,17.33 -2.3,20.71z"/>
   <path class="fil2" d="M25.62 57.46c0.31,-2.9 2.49,-14.07 2.49,-14.07l15.41 0c0,0 0.1,2.14 0.07,3.13 -0.03,0.98 -0.34,2.79 -0.9,5.06 -0.55,2.28 -2.59,8.72 -2.98,9.67 -0.39,0.95 -1.16,3.7 -1.16,3.7 0.38,5.17 -0.6,9.8 -1.34,15.96 0,0 -0.21,0.83 -2.4,0.67 -2.12,-0.16 -2.55,-0.94 -2.55,-0.94l-0.14 -5.32c0,0 -1.16,0.36 -1.84,0.19 0,0 -4.56,-11.26 -4.78,-11.94 -0.22,-0.68 -0.19,-3.21 0.12,-6.12z"/>
   <path class="fil12" d="M35.36 81.6c-0.17,0 -0.35,-0.01 -0.54,-0.02 -2.12,-0.16 -2.55,-0.94 -2.55,-0.94l-0.14 -5.32c0,0 0,0 0,-0l0 0c0,0 -0.56,-9.67 -0.71,-11.92 -0.15,-2.25 1.92,-13.19 1.92,-13.19 0,0 -2.22,-1.16 -3.84,-3.08 0,0 0.49,1.56 2.67,3.53 0,0 -1.66,11.43 -1.55,13.6 0.04,0.82 1.49,10.97 1.51,11.05 -0.01,0 -0.77,0.24 -1.42,0.24 -0.15,0 -0.29,-0.01 -0.42,-0.04 0,0 -4.56,-11.26 -4.78,-11.94 -0.09,-0.29 -0.14,-0.93 -0.14,-1.78 0,-1.14 0.09,-2.68 0.27,-4.33 0.31,-2.9 2.49,-14.07 2.49,-14.07l15.41 0c0,0 0.07,1.64 0.07,2.71 0,0.15 -0,0.29 -0.01,0.42 -0.03,0.98 -0.34,2.79 -0.9,5.06 -0.55,2.28 -2.59,8.72 -2.98,9.67 -0.2,0.48 -0.49,1.4 -0.73,2.21 0,0 -0,0 -0,0 -0.24,0.8 -0.43,1.49 -0.43,1.49l0 0c0.06,0.79 0.08,1.56 0.08,2.33 0,4.28 -0.8,8.41 -1.42,13.63 0,0 -0.18,0.69 -1.85,0.69z"/>
   <path class="fil13" d="M32.12 75.32c0,0 0,-0 -0,-0 0,0 0,0 0,0l0 0c0,0 0,0 0,0z"/>
   <path class="fil14" d="M32.12 75.32l0 -0c0,0 0,0 0,0z"/>
   <path class="fil14" d="M32.12 75.32c-0.02,-0.09 -1.47,-10.23 -1.51,-11.05 -0.11,-2.17 1.55,-13.6 1.55,-13.6 -2.18,-1.97 -2.67,-3.53 -2.67,-3.53 1.63,1.92 3.84,3.08 3.84,3.08 0,0 -2.07,10.94 -1.92,13.19 0.15,2.25 0.71,11.92 0.71,11.92 0,0 0,0 -0,0z"/>
   <path class="fil6" d="M36.96 86.39c0.22,0.06 0.19,0.7 0.09,0.94 -0.1,0.24 -0.48,0.69 -1,1.03 -0.52,0.34 -1,0.82 -1.46,1.57 -0.33,0.54 -1.16,1.56 -2.29,2.24 -1.13,0.68 -2.79,0.91 -4.03,0.56 -1.45,-0.41 -1.58,-0.76 -1.57,-1.31l10.25 -5.03z"/>
   <path class="fil7" d="M32.49 83.04c-0.38,1.85 -1.04,3.19 -2.57,4.33 -1.22,0.91 -2.1,1.37 -3.08,2.17 -0.41,0.34 -0.45,1.08 -0.13,1.87 0.66,0.53 1.59,0.83 2.85,0.83 1.4,-0 1.94,-0.25 2.75,-0.8 0.46,-0.32 0.78,-0.61 1.1,-0.92 0.67,-0.68 1.14,-1.51 1.63,-2.05 0.49,-0.54 1.54,-1.08 1.84,-1.73 0.16,-0.36 0.09,-1.18 -0.02,-1.88 -0.1,-0.64 0.1,-1.77 -0.21,-1.84l-0.04 0.46c-0.03,0.1 -0.09,0.16 -0.31,0.23 -0.14,0.05 -0.44,0.04 -0.59,0.02 -0.18,-0.03 -0.28,-0.03 -0.4,0.11 -0.21,0.24 -0.26,0.59 -0.53,0.79 -0.02,0.01 -0.04,0.03 -0.06,0.03 -0.02,0 -0.05,-0 -0.06,-0.02 -0.02,-0.02 -0.01,-0.05 -0.01,-0.08 0.03,-0.23 0.05,-0.46 0.08,-0.69 0.01,-0.07 0.02,-0.14 0.01,-0.21 -0.02,-0.13 -0.12,-0.24 -0.22,-0.3 -0.19,-0.11 -0.41,-0.2 -0.62,-0.26 -0.22,-0.06 -0.45,-0.1 -0.69,-0.12 -0.23,-0.02 -0.48,-0.03 -0.71,0.03z"/>
   <path class="fil2" d="M42.12 22.48c0,0 0.63,0.87 1.14,2.66 0,0 0.97,4.1 0.97,8.96 0,4.07 -0.55,10.66 -0.55,10.66 -4.72,2.37 -12.34,0.97 -15.69,-1.34 0.14,-0.73 0.25,-4.58 0.51,-7.12 0.18,-4.36 0.33,-6.64 0.36,-8.58 0.06,-3.87 1.99,-5.87 3.44,-5.9l3.7 0.06 6.11 0.6z"/>
   <path class="fil11" d="M43.29 43.57c-0.7,0.58 -2.08,1.69 -2.33,2.25 -0.29,0.64 -0.47,1.6 -0.66,1.98 -0.19,0.37 0.1,0.55 0.5,0.42 0.4,-0.13 0.65,-0.48 0.96,-1.31 0.31,-0.84 1.18,-1.49 1.18,-1.49l0.34 -1.83z"/>
   <path class="fil10" d="M40.73 51.11c0.17,0.32 0.56,0.33 0.92,0.35 0.52,0.04 0.81,0.01 1.3,-0.15 0.5,-0.15 0.96,-0.45 1.25,-0.87 0.35,-0.51 0.45,-1.15 0.65,-1.74 0.43,-1.23 1.69,-2.12 1.89,-3.43 0.08,-0.54 0.09,-1.17 0.24,-1.51 0.09,-0.2 2.16,-3.77 2.9,-5.31 0.71,-1.49 1.24,-2.19 0.6,-3.97 -0.64,-1.79 -2.84,-8.07 -4.39,-10.26 -0.88,-1.24 -2.28,-1.59 -3.97,-1.74 -1.29,3.36 0.21,6.83 0.21,6.83l3.41 6.58c0,0 -1.33,4.53 -2.15,7.05 -0.23,0.7 -0.7,1.13 -1.22,1.91 -0.23,0.34 -0.75,0.93 -0.93,1.29 -0.24,0.47 -0.23,0.76 -0.34,1.41 -0.18,1.04 -0.45,3.4 -0.37,3.56z"/>
   <path class="fil7" d="M41.94 22.47c0.89,0.04 2.17,0.19 2.94,0.57 0.77,0.39 1.29,0.86 2.18,2.63 0.88,1.76 2.16,5.19 2.16,5.19 0,0 -0.43,2.58 -4.51,3.26l-2.76 -5.09c0,0 -1.23,-3.17 0,-6.55z"/>
   <path class="fil5" d="M31.32 14.24c0.13,0.19 0.21,0.46 0.31,0.67 0.15,0.3 0.3,0.6 0.52,0.86 0.53,0.61 1.27,1.06 1.95,1.49 0.41,0.26 0.88,0.51 1.38,0.44 0.51,-0.07 1.06,0.04 1.58,0.08 0.6,0.05 1.21,0.11 1.81,0.16l-0.1 1.9c0,0 0.22,-0.5 0.53,-1.11 0.26,-0.52 1.36,-3.15 1.37,-3.16 0.55,-1.3 1.19,-3.04 0.54,-4.41 -0.15,-0.32 -0.38,-0.62 -0.71,-0.81 0.07,-0.25 0.09,-0.43 0.06,-0.65 -0.09,-0.74 -0.46,-1.16 -0.96,-1.52 -0.5,-0.37 -1.1,-0.56 -1.71,-0.7 -0.81,-0.19 -1.64,-0.28 -2.47,-0.28 -0.83,0 -1.61,0.14 -2.43,0.28 -0.45,0.08 -0.9,0.14 -1.35,0.14 -0.19,0 -0.4,0.01 -0.59,-0.03 -0.24,-0.06 -0.48,-0.17 -0.71,-0.26 -0.04,-0.01 -0.09,-0.03 -0.13,-0.01 -0.04,0.02 -0.06,0.07 -0.07,0.11 -0.15,0.53 0.04,1.22 0.38,1.66 -0.14,-0.02 -0.25,-0.06 -0.3,-0.09 -0.11,-0.05 -0.21,-0.11 -0.31,-0.17 -0.18,-0.11 -0.3,-0.25 -0.44,-0.42 -0.02,-0.02 -0.04,-0.05 -0.07,-0.05 -0.05,-0.01 -0.08,0.03 -0.11,0.07 -0.26,0.36 -0.33,0.84 -0.24,1.27 0.09,0.44 0.32,0.83 0.6,1.18 -0.3,0.45 -0.31,1.05 -0.08,1.54 0.1,0.22 0.24,0.41 0.41,0.59 0.21,0.21 0.45,0.38 0.67,0.58 0.22,0.2 0.49,0.39 0.66,0.63z"/>
   <path class="fil10" d="M36.84 11.07c0.01,0.51 0.08,0.86 0.13,1.02 0.11,0.31 0.29,0.52 0.51,0.76 0.23,0.24 0.52,0.44 0.71,0.72 0.26,0.38 0.35,0.88 0.4,1.33 0.03,0.27 0.12,0.57 0.35,0.71 0.49,0.3 0.79,-0.29 1.05,-0.58 0.34,-0.31 1.34,-0.69 1.81,0.37 0.48,1.11 -0.41,2.57 -1.21,2.8 -1.39,0.39 -1.7,-0.56 -1.7,-0.56l-0.27 4.97c-0.79,1.49 -2.63,1.96 -3.85,1.73 -1.05,-0.2 -1.62,-0.94 -0.64,-2l0.05 -1.51c0,0 -1.26,0.15 -1.86,0.04 -1.01,-0.19 -1.51,-1.05 -1.78,-2.16 -0.44,-1.78 -0.64,-3.65 -0.1,-7.66 0.25,-0.14 1.24,0.64 2.75,0.74 1.5,0.1 2.88,-0.3 3.63,-0.71z"/>
   <path class="fil11" d="M34.2 20.82c0,0 2.28,-0.38 3.08,-0.78 0.54,-0.26 0.99,-0.74 1.13,-1.05 0,0 -0.17,0.67 -0.66,1.26 -0.6,0.72 -3.57,1.17 -3.57,1.17l0.02 -0.6z"/>
   <path class="fil6" d="M35.38 12.84l1.06 0.32c0.08,-0.3 -0.09,-0.62 -0.38,-0.71 -0.29,-0.09 -0.6,0.08 -0.68,0.39z"/>
   <path class="fil11" d="M35.01 17.87l-1.56 0.53c0.14,0.45 0.6,0.69 1.03,0.55 0.43,-0.15 0.67,-0.63 0.53,-1.07z"/>
   <path class="fil15" d="M34.88 18.26c-0.43,0 -0.79,0.3 -0.89,0.7 0.15,0.05 0.32,0.05 0.49,-0.01 0.3,-0.1 0.51,-0.37 0.56,-0.68 -0.05,-0.01 -0.1,-0.02 -0.15,-0.02z"/>
   <path class="fil6" d="M30.64 13.02l1.08 -0.14c-0.03,-0.29 -0.3,-0.5 -0.6,-0.46 -0.3,0.04 -0.51,0.31 -0.48,0.6z"/>
   <path class="fil6" d="M37.28 13.48l3.56 1.22c0,0 -0.56,-0.05 -1.03,0.52l-2.52 -0.96 -0.01 -0.78z"/>
   <path class="fil6" d="M31.17 14.86c-0.01,0.24 0.18,0.45 0.41,0.45 0.23,0.01 0.43,-0.19 0.44,-0.43 0.01,-0.24 -0.18,-0.45 -0.41,-0.45 -0.24,-0.01 -0.43,0.19 -0.44,0.43z"/>
   <path class="fil6" d="M35.24 14.87c-0.01,0.24 0.18,0.45 0.41,0.45 0.24,0.01 0.43,-0.19 0.44,-0.43 0.01,-0.24 -0.18,-0.45 -0.41,-0.45 -0.24,-0.01 -0.43,0.19 -0.44,0.43z"/>
   <path class="fil6" d="M29.79 13.86c0.04,-0.04 0.1,-0.08 0.19,-0.12l0.01 -0.01c0.03,-0.01 0.05,-0.02 0.08,-0.03l0.05 -0.02 0.04 -0.01 0.03 -0.01 0.01 -0 0.04 -0.01c0.05,-0.01 0.11,-0.02 0.17,-0.03 0.03,-0 0.06,-0.01 0.09,-0.01l0.06 -0 0.04 -0c0.04,-0 0.08,-0 0.12,-0l0.04 0 0.04 0c0.11,0 0.23,0.01 0.35,0.03 0.54,0.08 1.11,0.33 1.25,0.55 0.15,0.22 0.11,0.68 0.04,1.08 -0.01,0.08 -0.04,0.17 -0.07,0.27l-0.01 0.02 -0.01 0.03 -0.01 0.02 -0.01 0.03c-0.01,0.02 -0.02,0.04 -0.03,0.07l-0.03 0.06 -0.01 0.02 -0.02 0.04 -0.02 0.03 -0 0.01c-0.19,0.29 -0.52,0.54 -1.13,0.51 -0.23,-0.01 -0.41,-0.06 -0.57,-0.14 -0.54,-0.27 -0.67,-0.88 -0.74,-1.16 -0.08,-0.36 -0.19,-1.06 -0.03,-1.22zm4.46 0.37c0.04,-0.06 0.12,-0.12 0.22,-0.18l0.04 -0.02 0.02 -0.01c0.03,-0.02 0.07,-0.04 0.11,-0.05 0.03,-0.01 0.07,-0.03 0.1,-0.04 0.1,-0.04 0.22,-0.08 0.34,-0.11 0.04,-0.01 0.09,-0.02 0.13,-0.03 0.11,-0.02 0.23,-0.04 0.35,-0.05 0.03,-0 0.05,-0.01 0.08,-0.01 0.76,-0.06 1.23,0.12 1.4,0.27 0.18,0.16 0.1,0.86 0.03,1.22l-0.01 0.03 -0.01 0.03c-0.01,0.04 -0.02,0.09 -0.03,0.14 -0.01,0.03 -0.02,0.06 -0.02,0.09l-0 0c-0.01,0.05 -0.03,0.1 -0.05,0.15l0 0 -0.02 0.05 -0.01 0.03 -0.02 0.03 -0.02 0.04 -0.03 0.05 -0.03 0.05 -0.03 0.05c-0.19,0.27 -0.51,0.5 -1.06,0.5 -0.55,-0 -0.9,-0.19 -1.12,-0.43l-0 -0c-0.22,-0.24 -0.32,-0.52 -0.37,-0.72 -0.09,-0.4 -0.15,-0.86 0,-1.08zm-5.18 -0.49c0.02,0.22 0.15,0.42 0.22,0.5 0.04,0.04 0.07,0.1 0.09,0.18 0.08,0.34 0.15,0.99 0.32,1.36 0.16,0.36 0.5,0.94 1.46,0.96 0.19,0 0.35,-0.01 0.5,-0.04l0.04 -0.01c0.15,-0.04 0.29,-0.09 0.4,-0.16l0.02 -0.02 0.03 -0.02c0.01,-0.01 0.02,-0.01 0.04,-0.03l0.04 -0.03 0.04 -0.04 0.04 -0.04c0.03,-0.03 0.05,-0.05 0.08,-0.08 0.14,-0.15 0.24,-0.33 0.32,-0.52 0.21,-0.47 0.16,-1.14 0.5,-1.21l0.04 -0.01 0.04 -0c0.47,0.01 0.42,0.73 0.68,1.24 0.26,0.52 0.7,1.02 1.72,1.03 0.05,0 0.09,0 0.13,-0 0.04,-0 0.07,-0 0.11,-0.01 0.09,-0.01 0.17,-0.02 0.25,-0.03 0.03,-0.01 0.05,-0.01 0.08,-0.02 0.03,-0.01 0.05,-0.01 0.07,-0.02l0.05 -0.02c0.1,-0.04 0.2,-0.08 0.28,-0.13 0.03,-0.02 0.06,-0.04 0.09,-0.06 0.06,-0.04 0.11,-0.09 0.16,-0.14 0.15,-0.16 0.25,-0.34 0.31,-0.48 0.16,-0.36 0.2,-1.01 0.28,-1.34 0.02,-0.09 0.05,-0.15 0.08,-0.2 0.07,-0.1 0.22,-0.27 0.23,-0.48 0.01,-0.22 -0.15,-0.41 -0.28,-0.43 -0.08,-0.01 -0.16,-0.02 -0.25,-0.03 -0.81,-0.1 -1.86,-0.14 -2.48,0.03 -0.79,0.22 -1.06,0.47 -1.5,0.46 -0.41,-0.01 -0.68,-0.27 -1.42,-0.52 -0.6,-0.19 -1.58,-0.19 -2.33,-0.12 -0.08,0.01 -0.16,0.02 -0.23,0.02 -0.13,0.02 -0.26,0.21 -0.25,0.43z"/>
   <path class="fil11" d="M33.45 14.56l-0.08 2.96 -1.65 -0.48 1.54 -2.51c0.07,-0.01 0.13,0 0.19,0.02z"/>
   <path class="fil2" d="M47.99 7.47c0,-4.13 3.82,-7.47 8.53,-7.47 4.71,0 8.53,3.34 8.53,7.47 0,4.13 -3.82,7.47 -8.53,7.47 -4.71,0 -8.53,-3.34 -8.53,-7.47z"/>
   <path class="fil2" d="M49.72 11.79c-0.05,1 -0.89,2.79 -2.43,3.44 -0.1,0.04 -0.08,0.18 0.02,0.2 0.84,0.17 3.07,0.39 4.72,-1.79l-2.31 -1.86z"/>
   <path class="fil16" d="M54.68 8.43c0.01,-0.11 0.01,-0.23 0.02,-0.36 0.01,-0.13 0.01,-0.27 0.01,-0.4 0,-0.14 -0,-0.27 -0.01,-0.4 -0.01,-0.13 -0.01,-0.24 -0.02,-0.35 -0.01,-0.15 -0.04,-0.29 -0.09,-0.41 -0.05,-0.13 -0.12,-0.24 -0.22,-0.33 -0.09,-0.09 -0.21,-0.17 -0.35,-0.22 -0.14,-0.05 -0.3,-0.08 -0.48,-0.08 -0.19,0 -0.35,0.03 -0.48,0.08 -0.14,0.05 -0.25,0.13 -0.35,0.22 -0.09,0.09 -0.16,0.2 -0.22,0.33 -0.05,0.13 -0.08,0.26 -0.09,0.41 -0.01,0.1 -0.02,0.22 -0.02,0.35 -0,0.13 -0,0.26 -0,0.4 0,0.14 0,0.27 0,0.4 0,0.13 0.01,0.25 0.02,0.36 0.02,0.3 0.13,0.55 0.31,0.75 0.18,0.2 0.46,0.3 0.83,0.3 0.37,0 0.65,-0.1 0.83,-0.3 0.18,-0.2 0.28,-0.45 0.31,-0.75zm-3.94 -1.55c0.02,-0.34 0.09,-0.65 0.22,-0.95 0.13,-0.3 0.31,-0.55 0.55,-0.77 0.24,-0.22 0.52,-0.39 0.86,-0.52 0.34,-0.13 0.73,-0.19 1.17,-0.19 0.44,0 0.83,0.06 1.17,0.19 0.34,0.13 0.63,0.3 0.87,0.52 0.24,0.22 0.42,0.48 0.55,0.77 0.13,0.3 0.2,0.61 0.22,0.95 0.01,0.26 0.02,0.53 0.02,0.81 0,0.28 -0.01,0.54 -0.02,0.79 -0.02,0.34 -0.09,0.65 -0.22,0.95 -0.13,0.3 -0.31,0.56 -0.55,0.78 -0.24,0.22 -0.53,0.4 -0.87,0.52 -0.34,0.13 -0.73,0.19 -1.17,0.19 -0.44,0 -0.83,-0.06 -1.17,-0.19 -0.34,-0.13 -0.63,-0.3 -0.86,-0.52 -0.24,-0.22 -0.42,-0.48 -0.55,-0.78 -0.13,-0.3 -0.2,-0.61 -0.22,-0.95 -0.01,-0.25 -0.02,-0.51 -0.02,-0.79 0,-0.28 0.01,-0.55 0.02,-0.81z"/>
   <path class="fil16" d="M62.72 10.52c0.02,0.02 0.03,0.06 0.03,0.1 0,0.05 -0.02,0.1 -0.06,0.14 -0.04,0.04 -0.09,0.06 -0.14,0.06l-1.43 0c-0.08,0 -0.15,-0.02 -0.21,-0.05 -0.05,-0.04 -0.11,-0.09 -0.16,-0.15l-1.7 -2.14 0 2.1c0,0.07 -0.02,0.12 -0.07,0.17 -0.05,0.05 -0.1,0.07 -0.17,0.07l-1.18 0c-0.07,0 -0.12,-0.02 -0.17,-0.07 -0.05,-0.05 -0.07,-0.1 -0.07,-0.17l0 -5.8c0,-0.07 0.02,-0.12 0.07,-0.17 0.05,-0.05 0.1,-0.07 0.17,-0.07l1.18 0c0.07,0 0.12,0.02 0.17,0.07 0.05,0.05 0.07,0.1 0.07,0.17l0 1.9 1.58 -1.94c0.03,-0.04 0.07,-0.08 0.12,-0.13 0.05,-0.05 0.13,-0.07 0.24,-0.07l1.4 0c0.05,0 0.1,0.02 0.14,0.06 0.04,0.04 0.06,0.09 0.06,0.14 0,0.04 -0.01,0.07 -0.03,0.1l-2.22 2.71 2.37 2.98z"/>
   <polygon class="fil1" points="78.53,14.53 77.24,14.92 76.31,11.81 77.59,11.42 "/>
   <path class="fil1" d="M82.56 11.77c0.05,0.17 -0.12,0.53 -0.37,0.6 0,0 0.12,0.13 0.18,0.33 0.07,0.24 -0.12,0.57 -0.51,0.68 -0.39,0.12 -2.95,0.89 -2.95,0.89l-0.87 -2.89 -0 -0c0,0 0.5,-1.28 0.53,-1.47 0.03,-0.19 -0.27,-0.9 -0.31,-1.04 -0.03,-0.11 0.44,-0.31 0.82,-0.16 0.09,0.04 0.17,0.09 0.24,0.17 0.15,0.16 0.26,0.32 0.34,0.48 0.13,0.25 0.18,0.52 0.18,0.82l1.78 -0.54c0.15,-0.04 0.28,-0.03 0.38,0.01 0.16,0.07 0.26,0.2 0.29,0.31 0.08,0.26 -0.07,0.46 -0.15,0.54 0,0 0.38,-0.03 0.49,0.33 0.06,0.2 -0.04,0.47 -0.29,0.6 0,0 0.15,0.08 0.23,0.33z"/>
   <polygon class="fil1" points="97.03,46.83 95.38,46.43 96.34,42.44 98,42.83 "/>
   <path class="fil1" d="M103.2 46.38c-0.05,0.21 -0.46,0.5 -0.78,0.42 0,0 0.05,0.22 -0.01,0.47 -0.07,0.31 -0.49,0.54 -0.99,0.42 -0.49,-0.12 -3.79,-0.91 -3.79,-0.91l0.89 -3.71 -0 -0c0,0 1.36,-1.08 1.51,-1.27 0.15,-0.19 0.28,-1.16 0.32,-1.33 0.03,-0.14 0.67,-0.06 0.99,0.35 0.07,0.09 0.13,0.2 0.16,0.34 0.06,0.27 0.08,0.51 0.06,0.74 -0.02,0.36 -0.13,0.68 -0.32,1.01l2.29 0.55c0.19,0.05 0.32,0.14 0.41,0.26 0.13,0.17 0.16,0.39 0.12,0.53 -0.08,0.34 -0.37,0.46 -0.51,0.49 0,0 0.44,0.21 0.32,0.67 -0.06,0.26 -0.34,0.48 -0.7,0.47 0,0 0.11,0.19 0.04,0.51z"/>
   <polygon class="fil1" points="13.43,44.44 15.24,44.98 16.55,40.62 14.74,40.08 "/>
   <path class="fil1" d="M7.79 40.57c-0.07,0.23 0.16,0.74 0.51,0.84 0,0 -0.17,0.18 -0.25,0.46 -0.1,0.34 0.17,0.79 0.71,0.95 0.54,0.16 4.14,1.24 4.14,1.24l1.22 -4.05 0 -0c0,0 -0.7,-1.79 -0.74,-2.06 -0.04,-0.27 0.38,-1.26 0.44,-1.45 0.05,-0.15 -0.61,-0.43 -1.14,-0.22 -0.12,0.05 -0.24,0.12 -0.34,0.23 -0.21,0.23 -0.36,0.45 -0.47,0.68 -0.18,0.35 -0.25,0.72 -0.25,1.14l-2.5 -0.75c-0.21,-0.06 -0.39,-0.04 -0.54,0.02 -0.22,0.09 -0.37,0.28 -0.41,0.44 -0.11,0.37 0.1,0.65 0.21,0.75 0,0 -0.53,-0.04 -0.68,0.46 -0.08,0.28 0.06,0.65 0.41,0.84 0,0 -0.21,0.12 -0.32,0.47z"/>
  </g>
 </g>
</svg>
