<?xml version="1.0" encoding="UTF-8"?>
<!DOCTYPE svg PUBLIC "-//W3C//DTD SVG 1.1//EN" "http://www.w3.org/Graphics/SVG/1.1/DTD/svg11.dtd">
<!-- Creator: CorelDRAW -->
<svg xmlns="http://www.w3.org/2000/svg" xml:space="preserve" width="0.367075in" height="0.331402in" version="1.1" style="shape-rendering:geometricPrecision; text-rendering:geometricPrecision; image-rendering:optimizeQuality; fill-rule:evenodd; clip-rule:evenodd"
viewBox="0 0 2.83 2.56"
 xmlns:xlink="http://www.w3.org/1999/xlink"
 xmlns:xodm="http://www.corel.com/coreldraw/odm/2003">
 <defs>
  <style type="text/css">
   <![CDATA[
    .fil1 {fill:#FEFEFE}
    .fil0 {fill:#A8518A}
   ]]>
  </style>
 </defs>
 <g id="Layer_x0020_1">
  <metadata id="CorelCorpID_0Corel-Layer"/>
  <g id="_2274281641872">
   <rect class="fil0" y="-0" width="2.83" height="2.56" rx="0.33" ry="0.33"/>
   <g>
    <path class="fil1" d="M1.03 1.06l0 0.04c0,0.19 0.18,0.37 0.37,0.37l0.04 0c0.19,0 0.37,-0.18 0.37,-0.37l0 -0.04c0,-0.19 -0.18,-0.37 -0.37,-0.37l-0.04 0c-0.1,0 -0.2,0.06 -0.25,0.11 -0.03,0.03 -0.05,0.06 -0.07,0.11 -0.02,0.04 -0.04,0.09 -0.04,0.15zm0.39 -0.24c0.14,0 0.26,0.12 0.26,0.26 0,0.14 -0.12,0.26 -0.26,0.26 -0.14,0 -0.26,-0.12 -0.26,-0.26 0,-0.14 0.12,-0.26 0.26,-0.26z"/>
    <path class="fil1" d="M0.8 2.07c0.01,0 0.03,-0.01 0.04,-0.02l0.08 -0.11c0.11,-0.15 0.32,-0.24 0.51,-0.24 0.12,0 0.22,0.03 0.32,0.08 0.18,0.09 0.25,0.25 0.27,0.27 0.04,0.03 0.11,-0.01 0.07,-0.07 -0.01,-0.01 -0.02,-0.03 -0.03,-0.04 -0.08,-0.12 -0.17,-0.19 -0.29,-0.25l-0.09 -0.04c-0.34,-0.13 -0.75,0.03 -0.93,0.34 -0.01,0.02 -0.01,0.04 -0,0.05 0.01,0.01 0.03,0.03 0.05,0.03z"/>
   </g>
   <circle class="fil1" cx="2" cy="0.83" r="0.09"/>
  </g>
 </g>
</svg>
